<?xml version="1.0" encoding="utf-8"?>
<!-- Generator: Adobe Illustrator 22.0.1, SVG Export Plug-In . SVG Version: 6.00 Build 0)  -->
<svg version="1.1" id="Livello_1" xmlns="http://www.w3.org/2000/svg" xmlns:xlink="http://www.w3.org/1999/xlink" x="0px" y="0px"
	 viewBox="0 0 938 171" style="enable-background:new 0 0 938 171;" xml:space="preserve">
<style type="text/css">
	.st0{fill:#EED4A1;}
	.st1{fill:#183D60;}
	.st2{fill:#D79236;}
	.st3{fill:#E1B166;}
	.st4{fill:#FFFFFF;}
	.st5{fill:#6DB5D1;}
	.st6{fill:#183D60;stroke:#173E60;stroke-width:5;stroke-miterlimit:10;}
	.st7{fill:#102032;}
	.st8{fill:none;}
</style>
<path class="st7" d="M911.2,42.6l-20.3,95.9c-2.3,11.1-12.1,19-23.4,19h-31.8c-3.6,0-7-0.8-10.2-2.3c-3.1,1.5-6.6,2.3-10.1,2.3
	h-13.1c-3.8,0-7.3-0.9-10.5-2.4c-3.2,1.6-6.8,2.4-10.5,2.4h-12c-4.3,0-8.5-1.2-12.1-3.3c-5.1,2.2-10.7,3.3-16.5,3.3h-54
	c-5.7,0-11-1.1-15.8-3.2c-3.5,2-7.6,3.2-11.9,3.2h-32c-4.1,0-8.1-1.1-11.6-3c-5,2-10.3,3-15.9,3h-54c-5.7,0-11-1.1-15.8-3.2
	c-3.5,2-7.6,3.2-11.9,3.2h-32c-3.5,0-6.9-0.8-10-2.2c-3.1,1.4-6.5,2.2-10,2.2h-32c-2.2,0-4.3-0.3-6.3-0.9c-2,0.6-4.1,0.9-6.3,0.9
	h-32c-3.9,0-7.7-1-11-2.7c-3.3,1.7-7,2.7-11,2.7h-32c-1.9,0-3.7-0.2-5.5-0.6c-0.4-0.1-0.9-0.2-1.3-0.3c-2.1,0.6-4.4,1-6.7,1H290
	c-3.6,0-7-0.8-10.1-2.3c-3.1,1.5-6.6,2.3-10.2,2.3h-13.1c-3.7,0-7.3-0.9-10.5-2.4c-3.2,1.6-6.8,2.4-10.5,2.4h-12
	c-7.2,0-14-3.3-18.6-8.9c-0.1-0.1-0.2-0.3-0.3-0.4c-4.4,5.7-11.3,9.2-18.8,9.2h-31.9c-7.2,0-14-3.3-18.6-8.9c-1-1.3-1.9-2.6-2.7-4.1
	c-1.1,1.2-2.4,2.4-3.7,3.4c-7.6,6.2-16.9,9.5-26.8,9.5h-54c-11.8,0-22-4.7-28.8-13.1c-6.7-8.4-8.9-19.3-6.4-30.8
	c0,0,13.9-66,13.9-66.1c2.2-9.7,7.3-18.1,14.7-24.2c7.6-6.2,16.9-9.5,26.8-9.5h53.9c5.3,0,10.2,0.9,14.7,2.7c3.4-1.8,7.1-2.7,11-2.7
	h32c7.9,0,15.1,3.9,19.5,10c4.5-6.3,11.7-10,19.5-10h12.9c2,0,4,0.3,5.8,0.7c1.9-0.5,3.8-0.7,5.9-0.7h28.9c8,0,15.2,4,19.5,10.1
	c4.5-6.3,11.7-10.1,19.5-10.1h30.2c2.3,0,4.6,0.3,6.8,1c2.2-0.6,4.4-1,6.7-1h32c3.9,0,7.7,1,11,2.7c3.3-1.7,7-2.7,11-2.7h32
	c4.2,0,8.2,1.1,11.7,3.1c5-2,10.4-3.1,16-3.1h54c7.9,0,15,2.1,20.9,6c6.5-3.9,13.9-6,21.8-6h54c5.7,0,11,1.1,15.7,3.1
	c3.5-2,7.6-3.1,11.8-3.1h32c2.2,0,4.3,0.3,6.3,0.9c2-0.6,4.2-0.9,6.3-0.9h32c3.5,0,6.9,0.8,10,2.2c2.9-1.3,6-2.1,9.3-2.2
	c0.2,0,0.5,0,0.7,0h32c2.3,0,4.6,0.4,6.8,1c2.2-0.6,4.4-1,6.8-1h28.9c8,0,15.2,4,19.5,10.1c4.5-6.3,11.7-10.1,19.5-10.1h30.2
	c7.2,0,14,3.3,18.6,8.9C910.9,28.2,912.7,35.6,911.2,42.6z"/>
<g>
	<polygon class="st8" points="498.6,73.5 503.7,49.6 483.7,49.6 478.2,75.2 489.2,70.6 	"/>
	<polygon class="st0" points="126.1,89.7 126.6,90 126.7,89.7 	"/>
	<path class="st4" d="M83.2,49.6h20l-3.3,15.9h32l2.6-12.9c1-4.5,0.4-8.1-1.7-10.8c-2.2-2.7-5.5-4.1-10.1-4.1h-54
		c-4.5,0-8.3,1.4-11.7,4.1c-3.3,2.7-5.5,6.4-6.5,10.9L45.8,75l31.6,1.7L83.2,49.6z"/>
	<polygon class="st4" points="219.3,37.7 189.4,87.2 180.4,37.7 148.4,37.7 159.5,98.5 200.4,90.3 232.2,37.7 	"/>
	<polygon class="st4" points="311.9,37.7 281.6,90.1 272.8,37.7 243.9,37.7 233.2,88.4 244.5,91.7 247.4,78 249.9,93.3 275.8,100.7 
		291.2,96.3 301.8,78 298.3,94.3 332.2,84.5 342.1,37.7 	"/>
	<polygon class="st4" points="387.6,37.7 355.6,37.7 346.5,80.4 359.4,76.7 378.6,80.3 380.1,73.4 381.2,80.8 394.5,83.3 	"/>
	<polygon class="st4" points="409.5,37.7 399.7,84.2 430.5,90 441.5,37.7 	"/>
	<path class="st4" d="M533.2,41.8c-2.2-2.7-5.5-4.1-10.1-4.1h-54c-4.4,0-8.3,1.4-11.7,4.1c-3.3,2.7-5.5,6.4-6.5,10.9L443.1,90
		l35.1-14.7l5.4-25.6h20l-5.1,23.9l30,9.2l6.3-30C536,48.1,535.4,44.5,533.2,41.8z"/>
	<path class="st4" d="M580.3,49.6h20L597,65.5h32l2.6-12.9c1-4.5,0.4-8.1-1.7-10.8c-2.2-2.7-5.5-4.1-10.1-4.1h-54
		c-4.5,0-8.3,1.4-11.7,4.1c-3.3,2.7-5.5,6.4-6.5,10.9l-5,23.9c-1,4.5-0.4,8.2,1.7,10.9l60.1-7.9h-30.6L580.3,49.6z"/>
	<polygon class="st4" points="647.3,37.7 638.4,79.9 668.6,88.3 679.3,37.7 	"/>
	<polygon class="st4" points="744,37.7 734.5,82.5 765.2,88.9 776,37.7 	"/>
	<polygon class="st4" points="714.3,83.2 724,37.7 692,37.7 680.6,91.6 680.6,91.6 	"/>
	<polygon class="st4" points="887.8,37.7 857.6,37.7 831.5,82.8 843.2,85.4 847.5,78 845.8,86 876.1,92.8 	"/>
	<polygon class="st4" points="825.9,81.6 818.5,37.7 789.6,37.7 778.2,91.6 778.2,91.6 791.1,87.3 793.1,78 794.4,86.2 815.5,79.2 	
		"/>
</g>
<g>
	<polygon class="st8" points="585,121.7 586.6,114.6 575.7,115.7 566.5,114.7 565,121.7 	"/>
	<polygon class="st8" points="87.9,121.7 89.8,112.9 81.4,113.4 70,111.5 67.9,121.7 	"/>
	<polygon class="st0" points="77.4,76.6 45.8,75 39.2,106.2 70,111.5 	"/>
	<polygon class="st0" points="126.1,89.7 82.6,89.7 80.1,101.6 92.2,101.6 89.8,112.9 122.2,110.7 126.6,90 	"/>
	<path class="st3" d="M87.9,121.7h-20l2.2-10.2l-30.8-5.3l-2.6,12.4c-1,4.5-0.4,8.2,1.7,10.9c2.2,2.7,5.5,4.1,10.1,4.1h54
		c4.5,0,8.3-1.4,11.7-4.1c3.3-2.7,5.5-6.4,6.5-10.9l1.7-7.9l-32.5,2.2L87.9,121.7z"/>
	<polygon class="st3" points="154.1,133.6 185.9,133.6 188.7,120.5 158.6,112.4 	"/>
	<polygon class="st0" points="200.4,90.3 159.5,98.5 160.5,103.6 158.6,112.4 188.7,120.5 192.3,103.6 	"/>
	<polygon class="st3" points="253.5,115.2 256.6,133.6 269.6,133.6 281.2,113.6 270.6,112 	"/>
	<polygon class="st0" points="275.8,100.7 249.9,93.3 253.5,115.2 270.6,112 281.2,113.6 291.2,96.3 	"/>
	<polygon class="st3" points="223.6,133.6 235.6,133.6 238.9,118 226.4,120.4 	"/>
	<polygon class="st0" points="233.2,88.4 226.4,120.4 238.9,118 244.5,91.7 	"/>
	<polygon class="st0" points="298.3,94.3 293.8,115.6 324.6,120.5 332.2,84.5 	"/>
	<polygon class="st3" points="290,133.6 321.8,133.6 324.6,120.5 293.8,115.6 	"/>
	<polygon class="st0" points="359.4,76.7 346.5,80.4 338,120.9 370.8,116.9 378.6,80.3 	"/>
	<polygon class="st3" points="335.3,133.6 367.3,133.6 370.8,116.9 338,120.9 	"/>
	<polygon class="st0" points="399.7,84.2 396.8,98 394.5,83.3 381.2,80.8 386.4,114.9 426.2,110 430.5,90 	"/>
	<polygon class="st3" points="389.2,133.6 421.2,133.6 426.2,110 386.4,114.9 	"/>
	<polygon class="st3" points="433.9,133.6 465.9,133.6 469.7,115.8 438.9,110 	"/>
	<polygon class="st3" points="485.9,133.6 517.9,133.6 522.6,111.4 489.5,116.6 	"/>
	<polygon class="st0" points="498.6,73.5 494.8,91.6 474.8,91.6 478.2,75.2 443.1,90 438.9,110 469.7,115.8 472.3,103.6 
		492.3,103.6 489.5,116.6 522.6,111.4 528.6,82.7 	"/>
	<path class="st3" d="M585,121.7h-20l1.5-7l-31.2-3.5l-1.5,7.4c-0.9,4.5-0.3,8.2,1.8,10.9c2.1,2.7,5.5,4.1,10,4.1h54
		c4.5,0,8.3-1.4,11.7-4.1c3.3-2.7,5.5-6.4,6.5-10.9l1.5-7.3l-32.7,3.3L585,121.7z"/>
	<polygon class="st0" points="568.4,105.7 536.4,105.7 535.2,111.2 566.5,114.7 	"/>
	<path class="st0" d="M621,83.8c-2.2-2.7-5.5-4.1-10.1-4.1h-6.4l-60.1,7.9c2.2,2.7,5.5,4.1,10.1,4.1h37l-4.9,23l32.7-3.3l3.5-16.6
		C623.8,90.1,623.2,86.5,621,83.8z"/>
	<polygon class="st3" points="627,133.6 659,133.6 662.5,117.3 631.7,111.4 	"/>
	<polygon class="st0" points="638.4,79.9 631.7,111.4 662.5,117.3 668.6,88.3 	"/>
	<path class="st3" d="M726.2,121.7h-20l2.4-11.3l-33.4,6.8l-0.3,1.4c-1,4.5-0.4,8.2,1.7,10.9c2.2,2.7,5.5,4.1,10.1,4.1h54
		c4.5,0,8.3-1.4,11.7-4.1c3.3-2.7,5.5-6.4,6.5-10.9l0.7-3.4l-30.8-5.6L726.2,121.7z"/>
	<polygon class="st0" points="714.3,83.2 680.6,91.6 675.2,117.2 708.6,110.3 	"/>
	<polygon class="st0" points="734.5,82.5 728.7,109.7 759.6,115.2 765.2,88.9 	"/>
	<polygon class="st0" points="845.8,86 839.3,116.2 869.7,123.2 876.1,92.8 	"/>
	<polygon class="st3" points="835.6,133.6 867.5,133.6 869.7,123.2 839.3,116.2 	"/>
	<polygon class="st0" points="778.2,91.6 773.2,115.1 785.5,113.4 791.1,87.3 	"/>
	<polygon class="st3" points="769.3,133.6 781.3,133.6 785.5,113.4 773.2,115.1 	"/>
	<polygon class="st0" points="831.5,82.8 827.3,90.1 825.9,81.6 815.5,79.2 794.4,86.2 798.6,111.6 812,109.8 827.1,113.3 
		843.2,85.4 	"/>
	<polygon class="st3" points="798.6,111.6 802.3,133.6 815.3,133.6 827.1,113.3 812,109.8 	"/>
</g>
</svg>
