<?xml version="1.0" encoding="utf-8"?>
<!-- Generator: Adobe Illustrator 22.0.1, SVG Export Plug-In . SVG Version: 6.00 Build 0)  -->
<svg version="1.1" id="Livello_1" xmlns="http://www.w3.org/2000/svg" xmlns:xlink="http://www.w3.org/1999/xlink" x="0px" y="0px"
	 viewBox="0 0 994 688" style="enable-background:new 0 0 994 688;" xml:space="preserve">
<style type="text/css">
	.st0{fill:#EED4A1;}
	.st1{fill:#183D60;}
	.st2{fill:#D79236;}
	.st3{fill:#E1B166;}
	.st4{fill:#FFFFFF;}
	.st5{fill:#6DB5D1;}
	.st6{fill:#183D60;stroke:#173E60;stroke-width:5;stroke-miterlimit:10;}
	.st7{fill:#102032;}
	.st8{fill:none;}
</style>
<path class="st4" d="M958.1,502.1c-7.3-9-18-14.1-29.6-14.1h-30.2c-7,0-13.7,1.9-19.5,5.4c-5.8-3.5-12.6-5.4-19.5-5.4h-28.9
	c-2.3,0-4.5,0.2-6.8,0.6c-2.3-0.4-4.5-0.6-6.8-0.6h-10.1c18.6-42.3,28.4-88.5,28.4-135c0-89.2-34.8-173.1-97.9-236.3
	c-63.1-63.1-147-97.9-236.3-97.9c-89.2,0-173.1,34.8-236.3,97.9c-63.1,63.1-97.9,147-97.9,236.3c0,46.5,9.8,92.7,28.4,135h-6.1
	c-3.9,0-7.8,0.6-11.6,1.8c-4.5-1.2-9.3-1.8-14.2-1.8h-54c-13.3,0-25.7,4.4-35.8,12.7c-9.9,8.1-16.7,19.2-19.6,32
	c0,0.1-13.5,64-14,66.2c-3.5,15.8-0.2,30.9,9.2,42.6c9.5,11.9,23.6,18.5,39.9,18.5h54c10.3,0,20.1-2.7,28.7-7.7
	c6.6,5,14.6,7.7,23,7.7h31.8c6.7,0,13.2-1.7,18.8-5c5.7,3.2,12.1,5,18.8,5h12c3.5,0,7.1-0.5,10.5-1.5c3.4,1,7,1.5,10.5,1.5h13.1
	c3.4,0,6.8-0.5,10.2-1.4c3.3,0.9,6.7,1.4,10.2,1.4h31.8c2.2,0,4.5-0.2,6.7-0.6c0,0,0.1,0,0.1,0c0.1,0,0.3,0,0.4,0.1
	c0.5,0.1,1,0.2,1.6,0.2c0.2,0,0.4,0.1,0.7,0.1c0.5,0.1,0.9,0.1,1.4,0.1c0.2,0,0.4,0,0.6,0c0.7,0,1.3,0.1,2,0.1h32
	c1.9,0,3.7-0.1,5.6-0.4c1.8-0.3,3.7-0.7,5.4-1.2c3.6,1.1,7.3,1.6,11,1.6h32c2.1,0,4.2-0.2,6.3-0.5c2.1,0.4,4.2,0.5,6.3,0.5h32
	c3.4,0,6.8-0.4,10-1.3c3.2,0.9,6.6,1.3,10,1.3h32c4.2,0,8.5-0.7,12.5-2.1c4.8,1.4,9.9,2.1,15.2,2.1h43.6h10.4c5.2,0,10.3-0.7,15.2-2
	c3.9,1.3,8.1,2,12.3,2h32c4.2,0,8.5-0.7,12.5-2.1c4.8,1.4,9.9,2.1,15.2,2.1h54c5.4,0,10.7-0.7,15.8-2.2c4.1,1.5,8.4,2.2,12.8,2.2h12
	c3.5,0,7.1-0.5,10.5-1.5c3.4,1,7,1.5,10.5,1.5h13.1c3.4,0,6.8-0.5,10.1-1.4c3.3,0.9,6.7,1.4,10.2,1.4h31.8
	c17.9,0,33.5-12.7,37.2-30.2l20.3-96C968.1,522.6,965.3,511,958.1,502.1z"/>
<path class="st7" d="M820.9,353c0,53.9-13.3,104.6-36.8,149.2c-33.6,63.6-88,114.5-154.2,143.7h-43.6c-5.7,0-11-1.1-15.8-3.2
	c-3.5,2-7.6,3.2-11.9,3.2h-32c-3.5,0-6.9-0.8-10-2.2c-3.1,1.4-6.5,2.2-10,2.2h-32c-2.2,0-4.3-0.3-6.3-0.9c-2,0.6-4.1,0.9-6.3,0.9
	h-32c-3.9,0-7.7-1-11-2.7c-3.3,1.7-7,2.7-11,2.7h-32c-1.9,0-3.7-0.2-5.5-0.6C305,616,251.2,565.3,217.8,502.1
	C194.3,457.6,181,406.9,181,353c0-176.7,143.2-319.9,319.9-319.9C677.6,33.1,820.9,176.3,820.9,353z"/>
<ellipse class="st0" cx="338.5" cy="340.8" rx="23.4" ry="112.8"/>
<ellipse class="st0" cx="663.7" cy="340.8" rx="23.4" ry="112.8"/>
<path class="st1" d="M771.7,280.1h-10.2c-2.3-10.2-5.7-21.3-10.6-28.2c-3.1-4.4-6.7-7.1-11.1-7.1h-21c-2-6-4.2-10.5-6.6-13.8
	c-2.9-3.9-6-5.8-9.4-5.8h-37.8c-16.5,0-25.8,49.1-27.3,101.8c-0.1,5-0.2,10-0.2,15c0,5,0.1,10,0.2,15
	c1.5,52.8,10.8,101.8,27.3,101.8h37.8c6.5,0,12-7.3,16.6-21.6h20.3c10.1,0,16.5-15.5,20.2-29.4h11.6c13.3,0,20.2-32.1,20.2-63.9
	C791.9,312.3,785,280.1,771.7,280.1z M650.8,421.9c-3.8-17.7-6.2-40.3-6.9-64.8c-0.1-4.9-0.2-9.9-0.2-15c0-5.1,0.1-10.1,0.2-15
	c0.7-24.5,3.1-47.1,6.9-64.9c4.9-22.9,10.8-31,14.4-31c3.3,0,10.5,8.1,15.9,38.6c3.6,20.3,5.6,46,5.6,72.3c0,26.3-2,52-5.6,72.3
	c-5.5,30.5-12.6,38.6-15.9,38.6C661.6,452.9,655.7,444.7,650.8,421.9z"/>
<path class="st2" d="M670,342c0,4.6-0.2,8.9-0.5,12.9c-0.3,3.2-0.7,6.1-1.1,8.7c-1.3,7.4-3.4,12.1-5.6,12.1c-3,0-5.6-8.6-6.7-20.8
	c-0.4-4-0.6-8.3-0.6-12.9c0-6.3,0.4-12.1,1-17.1c1.3-9.9,3.6-16.5,6.2-16.5c2.2,0,4.3,4.7,5.6,12.2c0.2,1.4,0.5,2.8,0.7,4.4
	C669.7,329.9,670,335.8,670,342z"/>
<path class="st2" d="M348.9,342c0,4.6-0.2,8.9-0.5,12.9c-0.3,3.2-0.7,6.1-1.1,8.7c-1.3,7.4-3.4,12.1-5.6,12.1c-3,0-5.6-8.6-6.7-20.8
	c-0.4-4-0.6-8.3-0.6-12.9c0-6.3,0.4-12.1,1-17.1c1.3-9.9,3.6-16.5,6.2-16.5c2.2,0,4.3,4.7,5.6,12.2c0.2,1.4,0.5,2.8,0.7,4.4
	C348.5,329.9,348.9,335.8,348.9,342z"/>
<path class="st3" d="M494.3,142.6l-123.1,86.1c-4.3,3-2.2,9.8,3.1,9.8h253.1c5.3,0,7.4-6.9,3-9.8l-130-86.1
	C498.5,141.3,496.1,141.3,494.3,142.6z"/>
<polygon class="st2" points="497.6,156 391,227.3 608.7,227.3 "/>
<path class="st3" d="M716.8,485.3H294.1c-4.9,0-8.9-4-8.9-8.9v0c0-4.9,4-8.9,8.9-8.9h422.7c4.9,0,8.9,4,8.9,8.9v0
	C725.6,481.3,721.7,485.3,716.8,485.3z"/>
<path class="st2" d="M755.8,502.1H250c-4.9,0-8.9-4-8.9-8.9v0c0-4.9,4-8.9,8.9-8.9h505.9c4.9,0,8.9,4,8.9,8.9v0
	C764.7,498.2,760.7,502.1,755.8,502.1z"/>
<path class="st4" d="M704.8,452.9H670c3.2,0,10.1-8.2,15.4-38.7c3.5-20.4,5.4-46.1,5.4-72.5c0-26.4-1.9-52.1-5.4-72.5
	c-5.3-30.6-12.2-38.7-15.4-38.7h34.8c3.2,0,10.1,8.2,15.4,38.7c3.5,20.4,5.4,46.1,5.4,72.5c0,26.4-1.9,52.1-5.4,72.5
	C714.9,444.7,708,452.9,704.8,452.9z"/>
<path class="st5" d="M747.6,255.8c-2.6-4.2-5.8-6.8-9.5-6.8h-17.5c1.5,5.5,3.1,12.6,4.5,21.9c3,20,4.7,45.2,4.7,71.1
	c0,25.9-1.7,51.2-4.7,71.1c-1.3,8.2-2.6,14.8-4,20h17c8.7,0,21.6-14.5,21.6-91.1C759.6,273,751.6,262.1,747.6,255.8z"/>
<path class="st4" d="M709.6,228C709.6,228,709.6,228,709.6,228l-0.3,0C709.5,228,709.6,228,709.6,228z"/>
<path class="st6" d="M230.1,403.9h10.2c2.3,10.2,5.7,21.3,10.6,28.2c3.1,4.4,6.7,7.1,11.1,7.1h21c2,6,4.2,10.5,6.6,13.8
	c2.9,3.9,6,5.8,9.4,5.8h37.8c16.5,0,25.8-49.1,27.3-101.8c0.1-5,0.2-10,0.2-15c0-5-0.1-10-0.2-15c-1.5-52.8-10.8-101.8-27.3-101.8
	h-37.8c-6.5,0-12,7.3-16.6,21.6H262c-10.1,0-16.5,15.5-20.2,29.4h-11.6c-13.3,0-20.2,32.1-20.2,63.9
	C209.9,371.8,216.9,403.9,230.1,403.9z M351.1,262.2c3.8,17.7,6.2,40.3,6.9,64.8c0.1,4.9,0.2,9.9,0.2,15c0,5.1-0.1,10.1-0.2,15
	c-0.7,24.5-3.1,47.1-6.9,64.9c-4.9,22.9-10.8,31-14.4,31c-3.3,0-10.5-8.1-15.9-38.6c-3.6-20.3-5.6-46-5.6-72.3c0-26.3,2-52,5.6-72.3
	c5.5-30.5,12.6-38.6,15.9-38.6C340.2,231.2,346.1,239.3,351.1,262.2z"/>
<path class="st4" d="M297,231.2h34.8c-3.2,0-10.1,8.2-15.4,38.7c-3.5,20.4-5.4,46.1-5.4,72.5c0,26.4,1.9,52.1,5.4,72.5
	c5.3,30.6,12.2,38.7,15.4,38.7H297c-3.2,0-10.1-8.2-15.4-38.7c-3.5-20.4-5.4-46.1-5.4-72.5c0-26.4,1.9-52.1,5.4-72.5
	C286.9,239.3,293.8,231.2,297,231.2z"/>
<path class="st5" d="M254.3,428.3c2.6,4.2,5.8,6.8,9.5,6.8h17.5c-1.5-5.5-3.1-12.6-4.5-21.9c-3-20-4.7-45.2-4.7-71.1
	c0-25.9,1.7-51.2,4.7-71.1c1.3-8.2,2.6-14.8,4-20h-17c-8.7,0-21.6,14.5-21.6,91.1C242.2,411,250.3,421.9,254.3,428.3z"/>
<g>
	<g>
		<path class="st4" d="M332,212.1c2.9-9.3,9.1-18.6,15.3-26.5c16.3-20.6,39-35.3,63.7-43.7c21.4-7.2,44-10,66.5-10c3.2,0,3.2-5,0-5
			c-56.3,0.2-117.7,20.2-145.5,72.9c-1.8,3.5-3.6,7.1-4.8,10.9C326.2,213.8,331.1,215.2,332,212.1L332,212.1z"/>
	</g>
</g>
<g>
	<g>
		<path class="st4" d="M671.9,210.8c-3.3-10.4-9.8-20.2-16.5-28.7c-16.7-21.1-40-36.1-65.4-44.7c-22-7.5-45.3-10.3-68.4-10.4
			c-3.2,0-3.2,5,0,5c54.7,0.2,114.4,19.3,141.3,70.6c1.7,3.3,3.2,6.1,4.2,9.5C668.1,215.2,672.9,213.9,671.9,210.8L671.9,210.8z"/>
	</g>
</g>
<g>
	<path class="st2" d="M389.7,189.6L389.7,189.6c-12.3,18.3-37.1,23.3-55.5,11l0,0l0,0C346.5,182.2,371.3,177.3,389.7,189.6
		L389.7,189.6z"/>
	<g>
		<path class="st4" d="M387.5,188.3c-11.4,17-35.2,21.4-52.1,10.1c0.3,1.1,0.6,2.3,0.9,3.4c11.4-17,35.2-21.4,52.1-10.1
			c2.7,1.8,5.2-2.5,2.5-4.3c-19.3-12.9-46.1-7.3-58.9,11.8c-0.8,1.2-0.2,2.7,0.9,3.4c19.3,12.9,46.1,7.3,58.9-11.8
			C393.6,188.2,389.3,185.7,387.5,188.3z"/>
	</g>
</g>
<g>
	<path class="st2" d="M353.7,173.4L353.7,173.4c-11-19.1-4.5-43.6,14.6-54.6l0,0v0C379.4,137.9,372.9,162.3,353.7,173.4L353.7,173.4
		z"/>
	<g>
		<path class="st4" d="M355.9,172.1c-10.2-17.7-4-41,13.7-51.2c-1.1-0.3-2.3-0.6-3.4-0.9c10.2,17.7,4,41-13.7,51.2
			c-2.8,1.6-0.3,5.9,2.5,4.3c20-11.6,27.1-38,15.5-58.1c-0.7-1.2-2.3-1.6-3.4-0.9c-20,11.6-27.1,38-15.5,58.1
			C353.2,177.4,357.5,174.9,355.9,172.1z"/>
	</g>
</g>
<g>
	<path class="st2" d="M430,133.3L430,133.3c-0.9-22.1,16.2-40.7,38.3-41.6h0v0C469.3,113.8,452.1,132.4,430,133.3L430,133.3z"/>
	<g>
		<path class="st4" d="M432.5,133.3c-0.8-20.4,15.3-38.3,35.8-39.1c-0.8-0.8-1.7-1.7-2.5-2.5c0.8,20.4-15.3,38.3-35.8,39.1
			c-3.2,0.1-3.2,5.1,0,5c23.1-1,41.8-20.9,40.8-44.1c-0.1-1.3-1.1-2.6-2.5-2.5c-23.1,1-41.8,20.9-40.8,44.1
			C427.7,136.5,432.7,136.5,432.5,133.3z"/>
	</g>
</g>
<g>
	<path class="st2" d="M441.6,159.8L441.6,159.8c-17.8,13.1-42.8,9.4-55.9-8.4l0,0l0,0C403.4,138.3,428.4,142,441.6,159.8
		L441.6,159.8z"/>
	<g>
		<path class="st4" d="M440.3,157.6c-16.3,12.1-40.3,9.1-52.5-7.5c-0.3,1.1-0.6,2.3-0.9,3.4c16.3-12.1,40.3-9.1,52.5,7.5
			c1.9,2.6,6.2,0.1,4.3-2.5c-13.7-18.5-40.7-23.1-59.4-9.3c-1,0.7-1.8,2.2-0.9,3.4c13.7,18.5,40.7,23.1,59.4,9.3
			C445.4,160,442.9,155.7,440.3,157.6z"/>
	</g>
</g>
<g>
	<path class="st2" d="M645.4,173.4L645.4,173.4c11-19.1,4.5-43.6-14.6-54.6v0v0C619.7,137.9,626.3,162.3,645.4,173.4L645.4,173.4z"
		/>
	<g>
		<path class="st4" d="M647.6,174.6c11.6-20,4.5-46.5-15.5-58.1c-1.2-0.7-2.7-0.3-3.4,0.9c-11.6,20-4.5,46.5,15.5,58.1
			c2.8,1.6,5.3-2.7,2.5-4.3c-17.7-10.2-24-33.5-13.7-51.2c-1.1,0.3-2.3,0.6-3.4,0.9c17.7,10.2,24,33.5,13.7,51.2
			C641.6,174.9,646,177.4,647.6,174.6z"/>
	</g>
</g>
<g>
	<path class="st2" d="M569.1,133.3L569.1,133.3c0.9-22.1-16.2-40.7-38.3-41.6h0v0C529.9,113.8,547,132.4,569.1,133.3L569.1,133.3z"
		/>
	<g>
		<path class="st4" d="M571.6,133.3c1-23.2-17.7-43.2-40.8-44.1c-1.4-0.1-2.4,1.2-2.5,2.5c-1,23.2,17.7,43.2,40.8,44.1
			c3.2,0.1,3.2-4.9,0-5c-20.5-0.8-36.7-18.7-35.8-39.1c-0.8,0.8-1.7,1.7-2.5,2.5c20.5,0.8,36.7,18.7,35.8,39.1
			C566.5,136.5,571.5,136.5,571.6,133.3z"/>
	</g>
</g>
<g>
	<path class="st2" d="M608.5,189.6L608.5,189.6c12.3,18.3,37.1,23.3,55.5,11l0,0l0,0C651.7,182.2,626.8,177.3,608.5,189.6
		L608.5,189.6z"/>
	<g>
		<path class="st4" d="M606.3,190.8c12.9,19.2,39.6,24.8,58.9,11.8c1.1-0.7,1.7-2.2,0.9-3.4c-12.9-19.2-39.6-24.8-58.9-11.8
			c-2.7,1.8-0.2,6.1,2.5,4.3c16.9-11.3,40.7-7,52.1,10.1c0.3-1.1,0.6-2.3,0.9-3.4c-16.9,11.3-40.7,7-52.1-10.1
			C608.9,185.7,604.5,188.2,606.3,190.8z"/>
	</g>
</g>
<g>
	<path class="st2" d="M557.6,159.8L557.6,159.8c17.8,13.1,42.8,9.4,55.9-8.4v0v0C595.8,138.3,570.7,142,557.6,159.8L557.6,159.8z"/>
	<g>
		<path class="st4" d="M556.3,161.9c18.7,13.8,45.7,9.3,59.4-9.3c0.9-1.2,0.1-2.7-0.9-3.4c-18.7-13.8-45.7-9.3-59.4,9.3
			c-1.9,2.6,2.4,5.1,4.3,2.5c12.2-16.5,36.2-19.5,52.5-7.5c-0.3-1.1-0.6-2.3-0.9-3.4c-12.2,16.5-36.2,19.5-52.5,7.5
			C556.3,155.7,553.8,160,556.3,161.9z"/>
	</g>
</g>
<path class="st7" d="M951.9,531l-20.3,95.9c-2.3,11.1-12.1,19-23.4,19h-31.8c-3.6,0-7-0.8-10.2-2.3c-3.1,1.5-6.6,2.3-10.1,2.3H843
	c-3.8,0-7.3-0.9-10.5-2.4c-3.2,1.6-6.8,2.4-10.5,2.4h-12c-4.3,0-8.5-1.2-12.1-3.3c-5.1,2.2-10.7,3.3-16.5,3.3h-54
	c-5.7,0-11-1.1-15.8-3.2c-3.5,2-7.6,3.2-11.9,3.2h-32c-4.1,0-8.1-1.1-11.6-3c-5,2-10.3,3-15.9,3h-54c-5.7,0-11-1.1-15.8-3.2
	c-3.5,2-7.6,3.2-11.9,3.2h-32c-3.5,0-6.9-0.8-10-2.2c-3.1,1.4-6.5,2.2-10,2.2h-32c-2.2,0-4.3-0.3-6.3-0.9c-2,0.6-4.1,0.9-6.3,0.9
	h-32c-3.9,0-7.7-1-11-2.7c-3.3,1.7-7,2.7-11,2.7h-32c-1.9,0-3.7-0.2-5.5-0.6c-0.4-0.1-0.9-0.2-1.3-0.3c-2.1,0.6-4.4,1-6.7,1h-31.8
	c-3.6,0-7-0.8-10.1-2.3c-3.1,1.5-6.6,2.3-10.2,2.3h-13.1c-3.7,0-7.3-0.9-10.5-2.4c-3.2,1.6-6.8,2.4-10.5,2.4h-12
	c-7.2,0-14-3.3-18.6-8.9c-0.1-0.1-0.2-0.3-0.3-0.4c-4.4,5.7-11.3,9.2-18.8,9.2h-31.9c-7.2,0-14-3.3-18.6-8.9c-1-1.3-1.9-2.6-2.7-4.1
	c-1.1,1.2-2.4,2.4-3.7,3.4c-7.6,6.2-16.9,9.5-26.8,9.5h-54c-11.8,0-22-4.7-28.8-13.1c-6.7-8.4-8.9-19.3-6.4-30.8
	c0,0,13.9-66,13.9-66.1c2.2-9.7,7.3-18.1,14.7-24.2c7.6-6.2,16.9-9.5,26.8-9.5h53.9c5.3,0,10.2,0.9,14.7,2.7c3.4-1.8,7.1-2.7,11-2.7
	h32c7.9,0,15.1,3.9,19.5,10c4.5-6.3,11.7-10,19.5-10H273c2,0,4,0.3,5.8,0.7c1.9-0.5,3.8-0.7,5.9-0.7h28.9c8,0,15.2,4,19.5,10.1
	c4.5-6.3,11.7-10.1,19.5-10.1h30.2c2.3,0,4.6,0.3,6.8,1c2.2-0.6,4.4-1,6.7-1h32c3.9,0,7.7,1,11,2.7c3.3-1.7,7-2.7,11-2.7h32
	c4.2,0,8.2,1.1,11.7,3.1c5-2,10.4-3.1,16-3.1h54c7.9,0,15,2.1,20.9,6c6.5-3.9,13.9-6,21.8-6h54c5.7,0,11,1.1,15.7,3.1
	c3.5-2,7.6-3.1,11.8-3.1h32c2.2,0,4.3,0.3,6.3,0.9c2-0.6,4.2-0.9,6.3-0.9h32c3.5,0,6.9,0.8,10,2.2c2.9-1.3,6-2.1,9.3-2.2
	c0.2,0,0.5,0,0.7,0h32c2.3,0,4.6,0.4,6.8,1c2.2-0.6,4.4-1,6.8-1h28.9c8,0,15.2,4,19.5,10.1c4.5-6.3,11.7-10.1,19.5-10.1h30.2
	c7.2,0,14,3.3,18.6,8.9C951.6,516.6,953.4,523.9,951.9,531z"/>
<g>
	<polygon class="st8" points="539.4,561.9 544.4,538 524.4,538 519,563.6 530,559 	"/>
	<polygon class="st0" points="166.8,578.1 167.4,578.3 167.4,578.1 	"/>
	<path class="st4" d="M123.9,538h20l-3.3,15.9h32l2.6-12.9c1-4.5,0.4-8.1-1.7-10.8c-2.2-2.7-5.5-4.1-10.1-4.1h-54
		c-4.5,0-8.3,1.4-11.7,4.1c-3.3,2.7-5.5,6.4-6.5,10.9l-4.7,22.3l31.6,1.7L123.9,538z"/>
	<polygon class="st4" points="260,526 230.1,575.5 221.1,526 189.1,526 200.3,586.9 241.1,578.7 273,526 	"/>
	<polygon class="st4" points="352.7,526 322.3,578.5 313.6,526 284.6,526 273.9,576.8 285.2,580.1 288.1,566.4 290.6,581.6 
		316.5,589.1 331.9,584.7 342.5,566.4 339,582.6 372.9,572.9 382.8,526 	"/>
	<polygon class="st4" points="428.3,526 396.3,526 387.3,568.8 400.2,565.1 419.3,568.7 420.8,561.8 421.9,569.2 435.2,571.6 	"/>
	<polygon class="st4" points="450.3,526 440.4,572.6 471.2,578.4 482.3,526 	"/>
	<path class="st4" d="M574,530.1c-2.2-2.7-5.5-4.1-10.1-4.1h-54c-4.4,0-8.3,1.4-11.7,4.1c-3.3,2.7-5.5,6.4-6.5,10.9l-7.9,37.3
		l35.1-14.7l5.4-25.6h20l-5.1,23.9l30,9.2l6.3-30C576.7,536.5,576.2,532.9,574,530.1z"/>
	<path class="st4" d="M621,538h20l-3.3,15.9h32l2.6-12.9c1-4.5,0.4-8.1-1.7-10.8c-2.2-2.7-5.5-4.1-10.1-4.1h-54
		c-4.5,0-8.3,1.4-11.7,4.1c-3.3,2.7-5.5,6.4-6.5,10.9l-5,23.9c-1,4.5-0.4,8.2,1.7,10.9l60.1-7.9h-30.6L621,538z"/>
	<polygon class="st4" points="688.1,526 679.1,568.3 709.3,576.7 720.1,526 	"/>
	<polygon class="st4" points="784.7,526 775.2,570.8 805.9,577.3 816.7,526 	"/>
	<polygon class="st4" points="755,571.6 764.7,526 732.7,526 721.3,580 721.3,580 	"/>
	<polygon class="st4" points="928.5,526 898.3,526 872.2,571.2 883.9,573.8 888.2,566.4 886.5,574.4 916.9,581.2 	"/>
	<polygon class="st4" points="866.6,570 859.3,526 830.3,526 818.9,580 818.9,580 831.8,575.7 833.8,566.4 835.2,574.6 856.2,567.6 
			"/>
</g>
<g>
	<polygon class="st8" points="625.8,610 627.3,603 616.5,604.1 607.2,603 605.7,610 	"/>
	<polygon class="st8" points="128.6,610 130.5,601.2 122.1,601.8 110.7,599.9 108.6,610 	"/>
	<polygon class="st0" points="118.2,565 86.5,563.3 79.9,594.6 110.7,599.9 	"/>
	<polygon class="st0" points="166.8,578.1 123.3,578.1 120.8,590 132.9,590 130.5,601.2 163,599.1 167.4,578.3 	"/>
	<path class="st3" d="M128.6,610h-20l2.2-10.2l-30.8-5.3L77.3,607c-1,4.5-0.4,8.2,1.7,10.9c2.2,2.7,5.5,4.1,10.1,4.1h54
		c4.5,0,8.3-1.4,11.7-4.1s5.5-6.4,6.5-10.9l1.7-7.9l-32.5,2.2L128.6,610z"/>
	<polygon class="st3" points="194.8,622 226.7,622 229.4,608.9 199.3,600.8 	"/>
	<polygon class="st0" points="241.1,578.7 200.3,586.9 201.2,592 199.3,600.8 229.4,608.9 233.1,592 	"/>
	<polygon class="st3" points="294.3,603.6 297.3,622 310.4,622 321.9,602 311.3,600.3 	"/>
	<polygon class="st0" points="316.5,589.1 290.6,581.6 294.3,603.6 311.3,600.3 321.9,602 331.9,584.7 	"/>
	<polygon class="st3" points="264.3,622 276.3,622 279.6,606.4 267.1,608.8 	"/>
	<polygon class="st0" points="273.9,576.8 267.1,608.8 279.6,606.4 285.2,580.1 	"/>
	<polygon class="st0" points="339,582.6 334.5,604 365.3,608.8 372.9,572.9 	"/>
	<polygon class="st3" points="330.7,622 362.5,622 365.3,608.8 334.5,604 	"/>
	<polygon class="st0" points="400.2,565.1 387.3,568.8 378.7,609.3 411.6,605.3 419.3,568.7 	"/>
	<polygon class="st3" points="376,622 408,622 411.6,605.3 378.7,609.3 	"/>
	<polygon class="st0" points="440.4,572.6 437.5,586.4 435.2,571.6 421.9,569.2 427.1,603.3 466.9,598.4 471.2,578.4 	"/>
	<polygon class="st3" points="430,622 462,622 466.9,598.4 427.1,603.3 	"/>
	<polygon class="st3" points="474.6,622 506.6,622 510.4,604.1 479.6,598.4 	"/>
	<polygon class="st3" points="526.6,622 558.6,622 563.3,599.8 530.2,605 	"/>
	<polygon class="st0" points="539.4,561.9 535.5,580 515.5,580 519,563.6 483.8,578.4 479.6,598.4 510.4,604.1 513,592 533,592 
		530.2,605 563.3,599.8 569.4,571.1 	"/>
	<path class="st3" d="M625.8,610h-20l1.5-7l-31.2-3.5l-1.5,7.4c-0.9,4.5-0.3,8.2,1.8,10.9c2.1,2.7,5.5,4.1,10,4.1h54
		c4.5,0,8.3-1.4,11.7-4.1c3.3-2.7,5.5-6.4,6.5-10.9l1.5-7.3l-32.7,3.3L625.8,610z"/>
	<polygon class="st0" points="609.1,594 577.1,594 576,599.6 607.2,603 	"/>
	<path class="st0" d="M661.7,572.1c-2.2-2.7-5.5-4.1-10.1-4.1h-6.4l-60.1,7.9c2.2,2.7,5.5,4.1,10.1,4.1h37l-4.9,23l32.7-3.3
		l3.5-16.6C664.5,578.5,663.9,574.9,661.7,572.1z"/>
	<polygon class="st3" points="667.8,622 699.8,622 703.2,605.7 672.5,599.8 	"/>
	<polygon class="st0" points="679.1,568.3 672.5,599.8 703.2,605.7 709.3,576.7 	"/>
	<path class="st3" d="M766.9,610h-20l2.4-11.3l-33.4,6.8l-0.3,1.4c-1,4.5-0.4,8.2,1.7,10.9c2.2,2.7,5.5,4.1,10.1,4.1h54
		c4.5,0,8.3-1.4,11.7-4.1c3.3-2.7,5.5-6.4,6.5-10.9l0.7-3.4l-30.8-5.6L766.9,610z"/>
	<polygon class="st0" points="755,571.6 721.3,580 715.9,605.5 749.3,598.7 	"/>
	<polygon class="st0" points="775.2,570.8 769.5,598 800.3,603.6 805.9,577.3 	"/>
	<polygon class="st0" points="886.5,574.4 880.1,604.5 910.4,611.6 916.9,581.2 	"/>
	<polygon class="st3" points="876.4,622 908.2,622 910.4,611.6 880.1,604.5 	"/>
	<polygon class="st0" points="818.9,580 813.9,603.5 826.3,601.8 831.8,575.7 	"/>
	<polygon class="st3" points="810,622 822,622 826.3,601.8 813.9,603.5 	"/>
	<polygon class="st0" points="872.2,571.2 868,578.5 866.6,570 856.2,567.6 835.2,574.6 839.4,600 852.7,598.2 867.8,601.7 
		883.9,573.8 	"/>
	<polygon class="st3" points="839.4,600 843,622 856.1,622 867.8,601.7 852.7,598.2 	"/>
</g>
<path class="st2" d="M665.2,342c0,5.4-0.4,10.5-1.1,15H339.3c1.8-7.8,2.7-15.4,2.7-20.5c0-4.8-2.5-7.7-5.8-9.5h328
	C664.8,331.5,665.2,336.6,665.2,342z"/>
<g>
	<polygon class="st4" points="373.1,264.5 382.7,283.8 382.7,454.7 402.7,454.7 402.7,283.8 412.3,264.5 	"/>
	<polygon class="st4" points="427.1,264.5 436.7,283.8 436.7,454.7 456.7,454.7 456.7,283.8 466.3,264.5 	"/>
	<polygon class="st4" points="481.1,264.5 490.7,283.8 490.7,454.7 510.7,454.7 510.7,283.8 520.3,264.5 	"/>
	<polygon class="st4" points="535.1,264.5 544.7,283.8 544.7,454.7 564.7,454.7 564.7,283.8 574.3,264.5 	"/>
	<polygon class="st4" points="628.3,264.5 589.1,264.5 598.7,283.8 598.7,454.7 618.7,454.7 618.7,283.8 	"/>
</g>
<path class="st0" d="M626.2,265.9H374.9c-5.2,0-9.3-4.2-9.3-9.3v0c0-5.2,4.2-9.3,9.3-9.3h251.3c5.2,0,9.3,4.2,9.3,9.3v0
	C635.6,261.7,631.4,265.9,626.2,265.9z"/>
<path class="st0" d="M631.9,467.9H372.6c-4.6,0-8.4-3.7-8.4-8.4l0,0c0-4.6,3.7-8.4,8.4-8.4h259.3c4.6,0,8.4,3.7,8.4,8.4l0,0
	C640.3,464.2,636.5,467.9,631.9,467.9z"/>
</svg>
