<?xml version="1.0" encoding="utf-8"?>
<!-- Generator: Adobe Illustrator 22.0.1, SVG Export Plug-In . SVG Version: 6.00 Build 0)  -->
<svg version="1.1" id="Livello_1" xmlns="http://www.w3.org/2000/svg" xmlns:xlink="http://www.w3.org/1999/xlink" x="0px" y="0px"
	 viewBox="0 0 733.3 733.3" style="enable-background:new 0 0 733.3 733.3;" xml:space="preserve">
<style type="text/css">
	.st0{fill:#EED4A1;}
	.st1{fill:#183D60;}
	.st2{fill:#D79236;}
	.st3{fill:#E1B166;}
	.st4{fill:#FFFFFF;}
	.st5{fill:#6DB5D1;}
	.st6{fill:#183D60;stroke:#173E60;stroke-width:5;stroke-miterlimit:10;}
	.st7{fill:#102032;}
	.st8{fill:none;}
</style>
<circle class="st7" cx="366.6" cy="366.6" r="366.6"/>
<g>
	<ellipse class="st0" cx="202.3" cy="373" rx="23.4" ry="112.8"/>
	<ellipse class="st0" cx="527.4" cy="373" rx="23.4" ry="112.8"/>
	<path class="st1" d="M635.4,312.3h-10.2c-2.3-10.2-5.7-21.3-10.6-28.2c-3.1-4.4-6.7-7.1-11.1-7.1h-21c-2-6-4.2-10.5-6.6-13.8
		c-2.9-3.9-6-5.8-9.4-5.8h-37.8c-16.5,0-25.8,49.1-27.3,101.8c-0.1,5-0.2,10-0.2,15c0,5,0.1,10,0.2,15
		C503.1,442,512.4,491,528.9,491h37.8c6.5,0,12-7.3,16.6-21.6h20.3c10.1,0,16.5-15.5,20.2-29.4h11.6c13.3,0,20.2-32.1,20.2-63.9
		C655.7,344.4,648.7,312.3,635.4,312.3z M514.5,454c-3.8-17.7-6.2-40.3-6.9-64.8c-0.1-4.9-0.2-9.9-0.2-15c0-5.1,0.1-10.1,0.2-15
		c0.7-24.5,3.1-47.1,6.9-64.9c4.9-22.9,10.8-31,14.4-31c3.3,0,10.5,8.1,15.9,38.6c3.6,20.3,5.6,46,5.6,72.3c0,26.3-2,52-5.6,72.3
		c-5.5,30.5-12.6,38.6-15.9,38.6C525.4,485,519.4,476.9,514.5,454z"/>
	<path class="st2" d="M533.8,374.2c0,4.6-0.2,8.9-0.5,12.9c-0.3,3.2-0.7,6.1-1.1,8.7c-1.3,7.4-3.4,12.1-5.6,12.1
		c-3,0-5.6-8.6-6.7-20.8c-0.4-4-0.6-8.3-0.6-12.9c0-6.3,0.4-12.1,1-17.1c1.3-9.9,3.6-16.5,6.2-16.5c2.2,0,4.3,4.7,5.6,12.2
		c0.2,1.4,0.5,2.8,0.7,4.4C533.4,362.1,533.8,367.9,533.8,374.2z"/>
	<path class="st2" d="M212.6,374.2c0,4.6-0.2,8.9-0.5,12.9c-0.3,3.2-0.7,6.1-1.1,8.7c-1.3,7.4-3.4,12.1-5.6,12.1
		c-3,0-5.6-8.6-6.7-20.8c-0.4-4-0.6-8.3-0.6-12.9c0-6.3,0.4-12.1,1-17.1c1.3-9.9,3.6-16.5,6.2-16.5c2.2,0,4.3,4.7,5.6,12.2
		c0.2,1.4,0.5,2.8,0.7,4.4C212.3,362.1,212.6,367.9,212.6,374.2z"/>
	<path class="st3" d="M358,174.8l-123.1,86.1c-4.3,3-2.2,9.8,3.1,9.8h253.1c5.3,0,7.4-6.9,3-9.8l-130-86.1
		C362.2,173.5,359.8,173.5,358,174.8z"/>
	<polygon class="st2" points="361.4,188.1 254.7,259.4 472.4,259.4 	"/>
	<path class="st3" d="M580.5,517.4H157.8c-4.9,0-8.9-4-8.9-8.9l0,0c0-4.9,4-8.9,8.9-8.9h422.7c4.9,0,8.9,4,8.9,8.9l0,0
		C589.4,513.5,585.4,517.4,580.5,517.4z"/>
	<path class="st2" d="M619.6,534.3H113.7c-4.9,0-8.9-4-8.9-8.9l0,0c0-4.9,4-8.9,8.9-8.9h505.9c4.9,0,8.9,4,8.9,8.9l0,0
		C628.4,530.3,624.5,534.3,619.6,534.3z"/>
	<path class="st4" d="M568.6,485h-34.8c3.2,0,10.1-8.2,15.4-38.7c3.5-20.4,5.4-46.1,5.4-72.5c0-26.4-1.9-52.1-5.4-72.5
		c-5.3-30.6-12.2-38.7-15.4-38.7h34.8c3.2,0,10.1,8.2,15.4,38.7c3.5,20.4,5.4,46.1,5.4,72.5c0,26.4-1.9,52.1-5.4,72.5
		C578.7,476.9,571.8,485,568.6,485z"/>
	<path class="st5" d="M611.3,287.9c-2.6-4.2-5.8-6.8-9.5-6.8h-17.5c1.5,5.5,3.1,12.6,4.5,21.9c3,20,4.7,45.2,4.7,71.1
		c0,25.9-1.7,51.2-4.7,71.1c-1.3,8.2-2.6,14.8-4,20h17c8.7,0,21.6-14.5,21.6-91.1C623.4,305.2,615.3,294.3,611.3,287.9z"/>
	<path class="st4" d="M573.4,260.2C573.4,260.2,573.4,260.2,573.4,260.2l-0.3,0C573.2,260.1,573.3,260.2,573.4,260.2z"/>
	<path class="st6" d="M93.9,436.1h10.2c2.3,10.2,5.7,21.3,10.6,28.2c3.1,4.4,6.7,7.1,11.1,7.1h21c2,6,4.2,10.5,6.6,13.8
		c2.9,3.9,6,5.8,9.4,5.8h37.8c16.5,0,25.8-49.1,27.3-101.8c0.1-5,0.2-10,0.2-15c0-5-0.1-10-0.2-15c-1.5-52.8-10.8-101.8-27.3-101.8
		h-37.8c-6.5,0-12,7.3-16.6,21.6h-20.3c-10.1,0-16.5,15.5-20.2,29.4H93.9c-13.3,0-20.2,32.1-20.2,63.9
		C73.7,403.9,80.6,436.1,93.9,436.1z M214.8,294.3c3.8,17.7,6.2,40.3,6.9,64.8c0.1,4.9,0.2,9.9,0.2,15c0,5.1-0.1,10.1-0.2,15
		c-0.7,24.5-3.1,47.1-6.9,64.9c-4.9,22.9-10.8,31-14.4,31c-3.3,0-10.5-8.1-15.9-38.6c-3.6-20.3-5.6-46-5.6-72.3
		c0-26.3,2-52,5.6-72.3c5.5-30.5,12.6-38.6,15.9-38.6C204,263.3,209.9,271.5,214.8,294.3z"/>
	<path class="st4" d="M160.8,263.3h34.8c-3.2,0-10.1,8.2-15.4,38.7c-3.5,20.4-5.4,46.1-5.4,72.5c0,26.4,1.9,52.1,5.4,72.5
		c5.3,30.6,12.2,38.7,15.4,38.7h-34.8c-3.2,0-10.1-8.2-15.4-38.7c-3.5-20.4-5.4-46.1-5.4-72.5c0-26.4,1.9-52.1,5.4-72.5
		C150.7,271.5,157.5,263.3,160.8,263.3z"/>
	<path class="st5" d="M118,460.4c2.6,4.2,5.8,6.8,9.5,6.8H145c-1.5-5.5-3.1-12.6-4.5-21.9c-3-20-4.7-45.2-4.7-71.1
		c0-25.9,1.7-51.2,4.7-71.1c1.3-8.2,2.6-14.8,4-20h-17c-8.7,0-21.6,14.5-21.6,91.1C106,443.2,114,454.1,118,460.4z"/>
	<g>
		<g>
			<path class="st4" d="M195.8,244.3c2.9-9.3,9.1-18.6,15.3-26.5c16.3-20.6,39-35.3,63.7-43.7c21.4-7.2,44-10,66.5-10
				c3.2,0,3.2-5,0-5c-56.3,0.2-117.7,20.2-145.5,72.9c-1.8,3.5-3.6,7.1-4.8,10.9C190,246,194.8,247.3,195.8,244.3L195.8,244.3z"/>
		</g>
	</g>
	<g>
		<g>
			<path class="st4" d="M535.7,242.9c-3.3-10.4-9.8-20.2-16.5-28.7c-16.7-21.1-40-36.1-65.4-44.7c-22-7.5-45.3-10.3-68.4-10.4
				c-3.2,0-3.2,5,0,5c54.7,0.2,114.4,19.3,141.3,70.6c1.7,3.3,3.2,6.1,4.2,9.5C531.8,247.3,536.6,246,535.7,242.9L535.7,242.9z"/>
		</g>
	</g>
	<g>
		<path class="st2" d="M253.4,221.7L253.4,221.7c-12.3,18.3-37.1,23.3-55.5,11l0,0l0,0C210.2,214.3,235.1,209.4,253.4,221.7
			L253.4,221.7z"/>
		<g>
			<path class="st4" d="M251.2,220.5c-11.4,17-35.2,21.4-52.1,10.1c0.3,1.1,0.6,2.3,0.9,3.4c11.4-17,35.2-21.4,52.1-10.1
				c2.7,1.8,5.2-2.5,2.5-4.3c-19.3-12.9-46.1-7.3-58.9,11.8c-0.8,1.2-0.2,2.7,0.9,3.4c19.3,12.9,46.1,7.3,58.9-11.8
				C257.4,220.3,253,217.8,251.2,220.5z"/>
		</g>
	</g>
	<g>
		<path class="st2" d="M217.5,205.5L217.5,205.5c-11-19.1-4.5-43.6,14.6-54.6l0,0l0,0C243.2,170,236.6,194.5,217.5,205.5
			L217.5,205.5z"/>
		<g>
			<path class="st4" d="M219.6,204.3c-10.2-17.7-4-41,13.7-51.2c-1.1-0.3-2.3-0.6-3.4-0.9c10.2,17.7,4,41-13.7,51.2
				c-2.8,1.6-0.3,5.9,2.5,4.3c20-11.6,27.1-38,15.5-58.1c-0.7-1.2-2.3-1.6-3.4-0.9c-20,11.6-27.1,38-15.5,58.1
				C216.9,209.6,221.2,207.1,219.6,204.3z"/>
		</g>
	</g>
	<g>
		<path class="st2" d="M293.8,165.5L293.8,165.5c-0.9-22.1,16.2-40.7,38.3-41.6h0v0C333,145.9,315.9,164.5,293.8,165.5L293.8,165.5z
			"/>
		<g>
			<path class="st4" d="M296.3,165.5c-0.8-20.4,15.3-38.3,35.8-39.1c-0.8-0.8-1.7-1.7-2.5-2.5c0.8,20.4-15.3,38.3-35.8,39.1
				c-3.2,0.1-3.2,5.1,0,5c23.1-1,41.8-20.9,40.8-44.1c-0.1-1.3-1.1-2.6-2.5-2.5c-23.1,1-41.8,20.9-40.8,44.1
				C291.4,168.7,296.4,168.7,296.3,165.5z"/>
		</g>
	</g>
	<g>
		<path class="st2" d="M305.3,191.9L305.3,191.9c-17.8,13.1-42.8,9.4-55.9-8.4l0,0l0,0C267.1,170.4,292.1,174.2,305.3,191.9
			L305.3,191.9z"/>
		<g>
			<path class="st4" d="M304,189.8c-16.3,12.1-40.3,9.1-52.5-7.5c-0.3,1.1-0.6,2.3-0.9,3.4c16.3-12.1,40.3-9.1,52.5,7.5
				c1.9,2.6,6.2,0.1,4.3-2.5c-13.7-18.5-40.7-23.1-59.4-9.3c-1,0.7-1.8,2.2-0.9,3.4c13.7,18.5,40.7,23.1,59.4,9.3
				C309.1,192.2,306.6,187.8,304,189.8z"/>
		</g>
	</g>
	<g>
		<path class="st2" d="M509.1,205.5L509.1,205.5c11-19.1,4.5-43.6-14.6-54.6l0,0l0,0C483.5,170,490,194.5,509.1,205.5L509.1,205.5z"
			/>
		<g>
			<path class="st4" d="M511.3,206.8c11.6-20,4.5-46.5-15.5-58.1c-1.2-0.7-2.7-0.3-3.4,0.9c-11.6,20-4.5,46.5,15.5,58.1
				c2.8,1.6,5.3-2.7,2.5-4.3c-17.7-10.2-24-33.5-13.7-51.2c-1.1,0.3-2.3,0.6-3.4,0.9c17.7,10.2,24,33.5,13.7,51.2
				C505.4,207.1,509.7,209.6,511.3,206.8z"/>
		</g>
	</g>
	<g>
		<path class="st2" d="M432.8,165.5L432.8,165.5c0.9-22.1-16.2-40.7-38.3-41.6h0v0C393.6,145.9,410.8,164.5,432.8,165.5L432.8,165.5
			z"/>
		<g>
			<path class="st4" d="M435.3,165.5c1-23.2-17.7-43.2-40.8-44.1c-1.4-0.1-2.4,1.2-2.5,2.5c-1,23.2,17.7,43.2,40.8,44.1
				c3.2,0.1,3.2-4.9,0-5c-20.5-0.8-36.7-18.7-35.8-39.1c-0.8,0.8-1.7,1.7-2.5,2.5c20.5,0.8,36.7,18.7,35.8,39.1
				C430.2,168.7,435.2,168.7,435.3,165.5z"/>
		</g>
	</g>
	<g>
		<path class="st2" d="M472.2,221.7L472.2,221.7c12.3,18.3,37.1,23.3,55.5,11v0v0C515.4,214.3,490.6,209.4,472.2,221.7L472.2,221.7z
			"/>
		<g>
			<path class="st4" d="M470.1,223c12.9,19.2,39.6,24.8,58.9,11.8c1.1-0.7,1.7-2.2,0.9-3.4c-12.9-19.2-39.6-24.8-58.9-11.8
				c-2.7,1.8-0.2,6.1,2.5,4.3c16.9-11.3,40.7-7,52.1,10.1c0.3-1.1,0.6-2.3,0.9-3.4c-16.9,11.3-40.7,7-52.1-10.1
				C472.6,217.8,468.3,220.3,470.1,223z"/>
		</g>
	</g>
	<g>
		<path class="st2" d="M421.3,191.9L421.3,191.9c17.8,13.1,42.8,9.4,55.9-8.4v0l0,0C459.5,170.4,434.5,174.2,421.3,191.9
			L421.3,191.9z"/>
		<g>
			<path class="st4" d="M420.1,194.1c18.7,13.8,45.7,9.3,59.4-9.3c0.9-1.2,0.1-2.7-0.9-3.4c-18.7-13.8-45.7-9.3-59.4,9.3
				c-1.9,2.6,2.4,5.1,4.3,2.5c12.2-16.5,36.2-19.5,52.5-7.5c-0.3-1.1-0.6-2.3-0.9-3.4c-12.2,16.5-36.2,19.5-52.5,7.5
				C420,187.8,417.5,192.2,420.1,194.1z"/>
		</g>
	</g>
	<path class="st2" d="M528.9,374.2c0,5.4-0.4,10.5-1.1,15H203c1.8-7.8,2.7-15.4,2.7-20.5c0-4.8-2.5-7.7-5.8-9.5h328
		C528.6,363.7,528.9,368.8,528.9,374.2z"/>
	<g>
		<polygon class="st4" points="236.8,296.7 246.4,315.9 246.4,486.8 266.4,486.8 266.4,315.9 276,296.7 		"/>
		<polygon class="st4" points="290.8,296.7 300.4,315.9 300.4,486.8 320.4,486.8 320.4,315.9 330,296.7 		"/>
		<polygon class="st4" points="344.8,296.7 354.4,315.9 354.4,486.8 374.4,486.8 374.4,315.9 384,296.7 		"/>
		<polygon class="st4" points="398.8,296.7 408.4,315.9 408.4,486.8 428.4,486.8 428.4,315.9 438,296.7 		"/>
		<polygon class="st4" points="492,296.7 452.8,296.7 462.4,315.9 462.4,486.8 482.4,486.8 482.4,315.9 		"/>
	</g>
	<path class="st0" d="M490,298H238.6c-5.2,0-9.3-4.2-9.3-9.3l0,0c0-5.2,4.2-9.3,9.3-9.3H490c5.2,0,9.3,4.2,9.3,9.3l0,0
		C499.3,293.8,495.1,298,490,298z"/>
	<path class="st0" d="M495.6,500.1H236.3c-4.6,0-8.4-3.7-8.4-8.4v0c0-4.6,3.7-8.4,8.4-8.4h259.3c4.6,0,8.4,3.7,8.4,8.4v0
		C504,496.3,500.2,500.1,495.6,500.1z"/>
</g>
</svg>
